<svg xmlns="http://www.w3.org/2000/svg" version="1.1" xmlns:xlink="http://www.w3.org/1999/xlink" xmlns:svgjs="http://svgjs.dev/svgjs" viewBox="0 0 9.144009540464339 9.470225810636762"><g transform="matrix(1,0,0,1,0.7754502048024818,7.60127560583428)"><rect width="9.470225810636762" height="9.470225810636762" x="-0.9385583398886936" y="-7.60127560583428" fill="#000000"></rect><g><path d=" M 0.2205 1.0785 Q 0.1785 1.0785 0.1455 1.05225 Q 0.1125 1.026 0.1125 0.987 L 0.1125 0.12 Q 0.1125 0.08099999999999996 0.13875 0.054750000000000076 Q 0.165 0.02849999999999997 0.20400000000000001 0.02849999999999997 L 0.636 0.02849999999999997 Q 0.714 0.02849999999999997 0.78225 0.06974999999999998 Q 0.8505 0.11099999999999999 0.8925000000000001 0.18374999999999997 Q 0.9345 0.25649999999999995 0.9345 0.351 Q 0.9345 0.40800000000000003 0.91125 0.46199999999999997 Q 0.888 0.516 0.8482500000000001 0.5595 Q 0.8085 0.603 0.759 0.627 L 0.7605000000000001 0.5925 Q 0.8025 0.615 0.83025 0.64575 Q 0.858 0.6765 0.87375 0.71175 Q 0.8895000000000001 0.747 0.8925000000000001 0.7875000000000001 Q 0.8985 0.825 0.90075 0.8535 Q 0.903 0.882 0.9097500000000001 0.9015 Q 0.9165 0.921 0.936 0.9315 Q 0.969 0.9510000000000001 0.9772500000000001 0.98775 Q 0.9855 1.0245 0.96 1.053 Q 0.9435 1.0725 0.918 1.07775 Q 0.8925000000000001 1.083 0.867 1.07775 Q 0.8415 1.0725 0.8250000000000001 1.0635000000000001 Q 0.7995 1.0485 0.774 1.01925 Q 0.7485 0.99 0.73275 0.9405 Q 0.717 0.891 0.717 0.813 Q 0.717 0.7875000000000001 0.708 0.7657499999999999 Q 0.6990000000000001 0.744 0.6825 0.7282500000000001 Q 0.666 0.7125 0.6405 0.70425 Q 0.615 0.696 0.5805 0.696 L 0.2775 0.696 L 0.3 0.6615 L 0.3 0.987 Q 0.3 1.026 0.279 1.05225 Q 0.258 1.0785 0.2205 1.0785 M 0.279 0.5415 L 0.6285000000000001 0.5415 Q 0.6555 0.5415 0.681 0.51675 Q 0.7065 0.492 0.723 0.44925000000000004 Q 0.7395 0.4065 0.7395 0.35550000000000004 Q 0.7395 0.2895 0.70425 0.24524999999999997 Q 0.669 0.20099999999999996 0.6285000000000001 0.20099999999999996 L 0.28200000000000003 0.20099999999999996 L 0.3 0.15300000000000002 L 0.3 0.5775 L 0.279 0.5415 M 1.7835600585937499 0.261 Q 1.82256005859375 0.261 1.84806005859375 0.2865 Q 1.87356005859375 0.31199999999999994 1.87356005859375 0.35250000000000004 L 1.87356005859375 0.987 Q 1.87356005859375 1.026 1.84806005859375 1.05225 Q 1.82256005859375 1.0785 1.7835600585937499 1.0785 Q 1.74456005859375 1.0785 1.71906005859375 1.05225 Q 1.69356005859375 1.026 1.69356005859375 0.987 L 1.69356005859375 0.9135 L 1.72656005859375 0.927 Q 1.72656005859375 0.9465 1.70556005859375 0.9742500000000001 Q 1.6845600585937501 1.002 1.64856005859375 1.029 Q 1.61256005859375 1.056 1.56381005859375 1.07475 Q 1.51506005859375 1.0935 1.45806005859375 1.0935 Q 1.35456005859375 1.0935 1.27056005859375 1.0402500000000001 Q 1.18656005859375 0.987 1.13781005859375 0.89325 Q 1.08906005859375 0.7995 1.08906005859375 0.6779999999999999 Q 1.08906005859375 0.555 1.13781005859375 0.46125000000000005 Q 1.18656005859375 0.36750000000000005 1.26906005859375 0.31425000000000003 Q 1.35156005859375 0.261 1.45206005859375 0.261 Q 1.51656005859375 0.261 1.57056005859375 0.28049999999999997 Q 1.62456005859375 0.30000000000000004 1.66431005859375 0.32999999999999996 Q 1.70406005859375 0.36 1.72581005859375 0.39075000000000004 Q 1.7475600585937499 0.4215 1.7475600585937499 0.4425 L 1.69356005859375 0.46199999999999997 L 1.69356005859375 0.35250000000000004 Q 1.69356005859375 0.3135 1.71906005859375 0.28725 Q 1.74456005859375 0.261 1.7835600585937499 0.261 M 1.48056005859375 0.9285 Q 1.54656005859375 0.9285 1.5960600585937499 0.8955 Q 1.64556005859375 0.8625 1.6733100585937501 0.8055 Q 1.7010600585937499 0.7484999999999999 1.7010600585937499 0.6779999999999999 Q 1.7010600585937499 0.606 1.6733100585937501 0.549 Q 1.64556005859375 0.492 1.5960600585937499 0.45899999999999996 Q 1.54656005859375 0.42600000000000005 1.48056005859375 0.42600000000000005 Q 1.41606005859375 0.42600000000000005 1.36656005859375 0.45899999999999996 Q 1.31706005859375 0.492 1.28931005859375 0.549 Q 1.26156005859375 0.606 1.26156005859375 0.6779999999999999 Q 1.26156005859375 0.7484999999999999 1.28931005859375 0.8055 Q 1.31706005859375 0.8625 1.36656005859375 0.8955 Q 1.41606005859375 0.9285 1.48056005859375 0.9285 M 2.490038818359375 0.261 Q 2.6100388183593752 0.261 2.667038818359375 0.31875 Q 2.724038818359375 0.37649999999999995 2.742038818359375 0.46799999999999997 L 2.716538818359375 0.4545 L 2.7285388183593753 0.4305 Q 2.746538818359375 0.396 2.784038818359375 0.35624999999999996 Q 2.8215388183593753 0.3165 2.874788818359375 0.28874999999999995 Q 2.928038818359375 0.261 2.994038818359375 0.261 Q 3.1020388183593752 0.261 3.1582888183593747 0.3075 Q 3.214538818359375 0.354 3.235538818359375 0.43125 Q 3.256538818359375 0.5085 3.256538818359375 0.603 L 3.256538818359375 0.987 Q 3.256538818359375 1.026 3.231038818359375 1.05225 Q 3.2055388183593747 1.0785 3.166538818359375 1.0785 Q 3.1275388183593753 1.0785 3.1020388183593752 1.05225 Q 3.076538818359375 1.026 3.076538818359375 0.987 L 3.076538818359375 0.603 Q 3.076538818359375 0.5535 3.0645388183593747 0.51375 Q 3.052538818359375 0.474 3.021038818359375 0.44999999999999996 Q 2.989538818359375 0.42600000000000005 2.931038818359375 0.42600000000000005 Q 2.874038818359375 0.42600000000000005 2.833538818359375 0.44999999999999996 Q 2.793038818359375 0.474 2.772788818359375 0.51375 Q 2.752538818359375 0.5535 2.752538818359375 0.603 L 2.752538818359375 0.987 Q 2.752538818359375 1.026 2.7270388183593752 1.05225 Q 2.701538818359375 1.0785 2.662538818359375 1.0785 Q 2.623538818359375 1.0785 2.598038818359375 1.05225 Q 2.572538818359375 1.026 2.572538818359375 0.987 L 2.572538818359375 0.603 Q 2.572538818359375 0.5535 2.560538818359375 0.51375 Q 2.548538818359375 0.474 2.5170388183593753 0.44999999999999996 Q 2.485538818359375 0.42600000000000005 2.427038818359375 0.42600000000000005 Q 2.370038818359375 0.42600000000000005 2.329538818359375 0.44999999999999996 Q 2.289038818359375 0.474 2.268788818359375 0.51375 Q 2.248538818359375 0.5535 2.248538818359375 0.603 L 2.248538818359375 0.987 Q 2.248538818359375 1.026 2.223038818359375 1.05225 Q 2.197538818359375 1.0785 2.158538818359375 1.0785 Q 2.119538818359375 1.0785 2.094038818359375 1.05225 Q 2.068538818359375 1.026 2.068538818359375 0.987 L 2.068538818359375 0.36750000000000005 Q 2.068538818359375 0.3285 2.094038818359375 0.30225 Q 2.119538818359375 0.276 2.158538818359375 0.276 Q 2.197538818359375 0.276 2.223038818359375 0.30225 Q 2.248538818359375 0.3285 2.248538818359375 0.36750000000000005 L 2.248538818359375 0.43200000000000005 L 2.226038818359375 0.4275 Q 2.239538818359375 0.402 2.263538818359375 0.37275 Q 2.287538818359375 0.3435 2.322038818359375 0.31799999999999995 Q 2.356538818359375 0.2925 2.398538818359375 0.27675000000000005 Q 2.440538818359375 0.261 2.490038818359375 0.261 M 3.822034423828125 1.0935 Q 3.694534423828125 1.0935 3.600784423828125 1.0402500000000001 Q 3.507034423828125 0.987 3.456784423828125 0.8955 Q 3.406534423828125 0.804 3.406534423828125 0.6885 Q 3.406534423828125 0.5535 3.461284423828125 0.45825000000000005 Q 3.516034423828125 0.363 3.604534423828125 0.31199999999999994 Q 3.693034423828125 0.261 3.792034423828125 0.261 Q 3.868534423828125 0.261 3.936784423828125 0.2925 Q 4.005034423828125 0.32399999999999995 4.057534423828125 0.37875000000000003 Q 4.110034423828125 0.4335 4.140784423828125 0.5055 Q 4.171534423828125 0.5775 4.171534423828125 0.6585000000000001 Q 4.170034423828125 0.6945 4.143034423828125 0.7170000000000001 Q 4.1160344238281255 0.7395 4.080034423828125 0.7395 L 3.507034423828125 0.7395 L 3.462034423828125 0.5895 L 4.012534423828125 0.5895 L 3.979534423828125 0.6194999999999999 L 3.979534423828125 0.579 Q 3.976534423828125 0.5355 3.948784423828125 0.501 Q 3.921034423828125 0.4665 3.879784423828125 0.44625000000000004 Q 3.838534423828125 0.42600000000000005 3.792034423828125 0.42600000000000005 Q 3.747034423828125 0.42600000000000005 3.708034423828125 0.43800000000000006 Q 3.669034423828125 0.44999999999999996 3.640534423828125 0.47850000000000004 Q 3.612034423828125 0.507 3.595534423828125 0.555 Q 3.579034423828125 0.603 3.579034423828125 0.6765 Q 3.579034423828125 0.7575000000000001 3.612784423828125 0.81375 Q 3.646534423828125 0.87 3.699784423828125 0.89925 Q 3.753034423828125 0.9285 3.813034423828125 0.9285 Q 3.868534423828125 0.9285 3.901534423828125 0.9195 Q 3.934534423828125 0.9105 3.954784423828125 0.89775 Q 3.975034423828125 0.885 3.991534423828125 0.876 Q 4.018534423828125 0.8625 4.042534423828125 0.8625 Q 4.075534423828125 0.8625 4.097284423828125 0.885 Q 4.119034423828125 0.9075 4.119034423828125 0.9375 Q 4.119034423828125 0.978 4.077034423828125 1.0110000000000001 Q 4.038034423828125 1.044 3.967534423828125 1.06875 Q 3.897034423828125 1.0935 3.822034423828125 1.0935 M 4.75056005859375 0.261 Q 4.86156005859375 0.261 4.91931005859375 0.3075 Q 4.97706005859375 0.354 4.99881005859375 0.43125 Q 5.02056005859375 0.5085 5.02056005859375 0.603 L 5.02056005859375 0.987 Q 5.02056005859375 1.026 4.99506005859375 1.05225 Q 4.96956005859375 1.0785 4.93056005859375 1.0785 Q 4.89156005859375 1.0785 4.86606005859375 1.05225 Q 4.84056005859375 1.026 4.84056005859375 0.987 L 4.84056005859375 0.603 Q 4.84056005859375 0.5535 4.82781005859375 0.51375 Q 4.81506005859375 0.474 4.78206005859375 0.44999999999999996 Q 4.74906005859375 0.42600000000000005 4.68756005859375 0.42600000000000005 Q 4.62756005859375 0.42600000000000005 4.58631005859375 0.44999999999999996 Q 4.54506005859375 0.474 4.52331005859375 0.51375 Q 4.50156005859375 0.5535 4.50156005859375 0.603 L 4.50156005859375 0.987 Q 4.50156005859375 1.026 4.47606005859375 1.05225 Q 4.45056005859375 1.0785 4.41156005859375 1.0785 Q 4.37256005859375 1.0785 4.34706005859375 1.05225 Q 4.32156005859375 1.026 4.32156005859375 0.987 L 4.32156005859375 0.36750000000000005 Q 4.32156005859375 0.3285 4.34706005859375 0.30225 Q 4.37256005859375 0.276 4.41156005859375 0.276 Q 4.45056005859375 0.276 4.47606005859375 0.30225 Q 4.50156005859375 0.3285 4.50156005859375 0.36750000000000005 L 4.50156005859375 0.43200000000000005 L 4.47906005859375 0.4275 Q 4.49256005859375 0.402 4.51806005859375 0.37275 Q 4.54356005859375 0.3435 4.57806005859375 0.31799999999999995 Q 4.61256005859375 0.2925 4.65606005859375 0.27675000000000005 Q 4.69956005859375 0.261 4.75056005859375 0.261 M 5.284572509765625 0.708 Q 5.245572509765625 0.708 5.219322509765625 0.6825 Q 5.193072509765625 0.657 5.193072509765625 0.618 Q 5.193072509765625 0.579 5.219322509765625 0.55425 Q 5.245572509765625 0.5295 5.284572509765625 0.5295 L 5.545572509765625 0.5295 Q 5.584572509765625 0.5295 5.610822509765625 0.55575 Q 5.637072509765625 0.5820000000000001 5.637072509765625 0.621 Q 5.637072509765625 0.6585000000000001 5.610822509765625 0.68325 Q 5.584572509765625 0.708 5.545572509765625 0.708 L 5.284572509765625 0.708 M 5.818566650390625 0.29100000000000004 L 6.174066650390625 0.29100000000000004 Q 6.210066650390625 0.29100000000000004 6.234066650390625 0.31499999999999995 Q 6.258066650390625 0.33899999999999997 6.258066650390625 0.375 Q 6.258066650390625 0.4095 6.234066650390625 0.43274999999999997 Q 6.210066650390625 0.45599999999999996 6.174066650390625 0.45599999999999996 L 5.818566650390625 0.45599999999999996 Q 5.782566650390625 0.45599999999999996 5.758566650390625 0.43200000000000005 Q 5.734566650390625 0.40800000000000003 5.734566650390625 0.372 Q 5.734566650390625 0.3375 5.758566650390625 0.31425000000000003 Q 5.782566650390625 0.29100000000000004 5.818566650390625 0.29100000000000004 M 5.979066650390625 0.10350000000000004 Q 6.018066650390625 0.10350000000000004 6.042816650390625 0.12975000000000003 Q 6.067566650390625 0.15600000000000003 6.067566650390625 0.19499999999999995 L 6.067566650390625 0.8625 Q 6.067566650390625 0.8835 6.075816650390625 0.897 Q 6.084066650390625 0.9105 6.098316650390625 0.9165 Q 6.112566650390625 0.9225 6.129066650390625 0.9225 Q 6.147066650390625 0.9225 6.162066650390625 0.9157500000000001 Q 6.177066650390625 0.909 6.196566650390625 0.909 Q 6.217566650390625 0.909 6.234816650390625 0.9285 Q 6.252066650390625 0.948 6.252066650390625 0.9825 Q 6.252066650390625 1.0245 6.206316650390625 1.0515 Q 6.160566650390625 1.0785 6.108066650390625 1.0785 Q 6.076566650390625 1.0785 6.038316650390625 1.07325 Q 6.000066650390625 1.068 5.966316650390625 1.04775 Q 5.932566650390625 1.0275 5.910066650390625 0.9855 Q 5.887566650390625 0.9435 5.887566650390625 0.87 L 5.887566650390625 0.19499999999999995 Q 5.887566650390625 0.15600000000000003 5.913816650390625 0.12975000000000003 Q 5.940066650390625 0.10350000000000004 5.979066650390625 0.10350000000000004 M 7.18655419921875 0.6779999999999999 Q 7.18655419921875 0.8009999999999999 7.13180419921875 0.89475 Q 7.07705419921875 0.9885 6.98480419921875 1.041 Q 6.8925541992187505 1.0935 6.77855419921875 1.0935 Q 6.66455419921875 1.0935 6.57230419921875 1.041 Q 6.48005419921875 0.9885 6.42530419921875 0.89475 Q 6.37055419921875 0.8009999999999999 6.37055419921875 0.6779999999999999 Q 6.37055419921875 0.555 6.42530419921875 0.46125000000000005 Q 6.48005419921875 0.36750000000000005 6.57230419921875 0.31425000000000003 Q 6.66455419921875 0.261 6.77855419921875 0.261 Q 6.8925541992187505 0.261 6.98480419921875 0.31425000000000003 Q 7.07705419921875 0.36750000000000005 7.13180419921875 0.46125000000000005 Q 7.18655419921875 0.555 7.18655419921875 0.6779999999999999 M 7.00655419921875 0.6779999999999999 Q 7.00655419921875 0.6014999999999999 6.97580419921875 0.54525 Q 6.94505419921875 0.489 6.8933041992187505 0.4575 Q 6.84155419921875 0.42600000000000005 6.77855419921875 0.42600000000000005 Q 6.71555419921875 0.42600000000000005 6.66380419921875 0.4575 Q 6.61205419921875 0.489 6.58130419921875 0.54525 Q 6.55055419921875 0.6014999999999999 6.55055419921875 0.6779999999999999 Q 6.55055419921875 0.753 6.58130419921875 0.80925 Q 6.61205419921875 0.8655 6.66380419921875 0.897 Q 6.71555419921875 0.9285 6.77855419921875 0.9285 Q 6.84155419921875 0.9285 6.8933041992187505 0.897 Q 6.94505419921875 0.8655 6.97580419921875 0.80925 Q 7.00655419921875 0.753 7.00655419921875 0.6779999999999999 M 7.50607470703125 0.987 Q 7.50607470703125 1.026 7.48057470703125 1.05225 Q 7.45507470703125 1.0785 7.41607470703125 1.0785 Q 7.37707470703125 1.0785 7.35157470703125 1.05225 Q 7.32607470703125 1.026 7.32607470703125 0.987 L 7.32607470703125 0.36750000000000005 Q 7.32607470703125 0.3285 7.35157470703125 0.30225 Q 7.37707470703125 0.276 7.41607470703125 0.276 Q 7.45507470703125 0.276 7.48057470703125 0.30225 Q 7.50607470703125 0.3285 7.50607470703125 0.36750000000000005 L 7.50607470703125 0.987 M 7.41457470703125 0.1785 Q 7.36357470703125 0.1785 7.34257470703125 0.16200000000000003 Q 7.32157470703125 0.14549999999999996 7.32157470703125 0.10350000000000004 L 7.32157470703125 0.07499999999999996 Q 7.32157470703125 0.031500000000000083 7.34482470703125 0.01574999999999993 Q 7.36807470703125 0 7.41607470703125 0 Q 7.46857470703125 0 7.48957470703125 0.01649999999999996 Q 7.51057470703125 0.03299999999999992 7.51057470703125 0.07499999999999996 L 7.51057470703125 0.10350000000000004 Q 7.51057470703125 0.14700000000000002 7.48807470703125 0.16274999999999995 Q 7.46557470703125 0.1785 7.41457470703125 0.1785" fill="#000000" fill-rule="nonzero"></path></g><g></g><g clip-path="url(#SvgjsClipPath1020)"><g clip-path="url(#af970f678-15bf-46e7-bc8d-109aafede36734eae785-1d9b-4adf-8f39-3b942af15d75)"><path d=" M 6.3556211202114055 -3.537912700515899 C 6.3556211202114055 -2.124595528846199 5.2098717370993874 -0.978846145734181 3.7965545654296875 -0.978846145734181 C 2.3832373937599867 -0.978846145734181 1.2375893237068711 -2.124595528846198 1.2375893237068711 -3.537912700515899 C 1.2375893237068711 -4.951229872185599 2.3832373937599876 -6.096979255297617 3.7965545654296875 -6.096979255297617 C 5.209871737099388 -6.096979255297617 6.3556211202114055 -4.951229872185599 6.3556211202114055 -3.537912700515899" fill="#000000" transform="matrix(1,0,0,1,0,0)" fill-rule="nonzero"></path></g><g clip-path="url(#af970f678-15bf-46e7-bc8d-109aafede36734eae785-1d9b-4adf-8f39-3b942af15d75)"><path d=" M 3.123126662914383 -4.375771697627613 L 5.856046426770309 -5.056696766501596 C 5.815207356124626 -5.111693016782751 5.772217276605791 -5.165058846625707 5.727176215848167 -5.216670086506363 L 3.0992167810137343 -4.469283650993286 Z" fill="#b13828" transform="matrix(1,0,0,1,0,0)" fill-rule="nonzero"></path></g><g clip-path="url(#af970f678-15bf-46e7-bc8d-109aafede36734eae785-1d9b-4adf-8f39-3b942af15d75)"><path d=" M 3.136499986689322 -4.272736316725242 L 6.113381596378986 -4.625001822524206 C 6.086229696593503 -4.682851579156708 6.056747596453297 -4.739485579082396 6.02534054819397 -4.794903822301274 L 3.1228227237376798 -4.370098166329155 Z" fill="#b13828" transform="matrix(1,0,0,1,0,0)" fill-rule="nonzero"></path></g><g clip-path="url(#SvgjsClipPath101834eae785-1d9b-4adf-8f39-3b942af15d75)"><path d=" M 3.4028520185401923 -2.4477841867405603 L 3.2832012959780474 -2.4477841867405603 L 3.2832012959780474 -4.404038041061007 L 3.4028520185401923 -4.404038041061007 Z M 4.451543491224999 -3.5241341245053555 L 4.331892768662856 -3.5241341245053555 L 4.331892768662856 -4.597849922738724 L 4.451543491224999 -4.597849922738724 Z M 3.6033505621053776 -2.4911461759502105 L 3.4836998395432333 -2.4911461759502105 L 3.4836998395432333 -4.447298717211758 L 3.6033505621053776 -4.447298717211758 Z M 3.803950418729465 -2.5459565408156806 L 3.6842996961673204 -2.5459565408156806 L 3.6842996961673204 -4.502210395136129 L 3.803950418729465 -4.502210395136129 Z M 4.00444896229465 -2.5598364298851255 L 3.884798239732506 -2.5598364298851255 L 3.884798239732506 -4.516090284205573 L 4.00444896229465 -4.516090284205573 Z M 4.227945570230374 -3.489890310596799 L 4.10829484766823 -3.489890310596799 L 4.10829484766823 -4.563606108830166 L 4.227945570230374 -4.563606108830166 Z" fill="#ffe398" transform="matrix(1,0,0,1,0,0)" fill-rule="nonzero"></path></g><g clip-path="url(#bf970f678-15bf-46e7-bc8d-109aafede36734eae785-1d9b-4adf-8f39-3b942af15d75)"><path d=" M 4.39176878647338 -1.3013256122162344 C 5.093969597716583 -1.5544056333510676 5.538632613233308 -2.1198338150778486 5.695566541471041 -2.96225189984011 L 1.8975425893883355 -2.96225189984011 C 2.057718535510902 -2.1276349206132297 2.4842465134843383 -1.5509609893484306 3.201340344385997 -1.2994006640971145 L 3.2022521619161064 -1.0461180168444804 C 3.39699345146065 -1.000128890914067 3.596457260032668 -0.9771426081669343 3.796554565429686 -0.9776303890273681 C 4.0016121966454214 -0.9776303890273681 4.199780539855882 -1.0006284533979066 4.39085696894327 -1.0461180168444804 Z" fill="#b13828" transform="matrix(1,0,0,1,0,0)" fill-rule="nonzero"></path></g><g clip-path="url(#bf970f678-15bf-46e7-bc8d-109aafede36734eae785-1d9b-4adf-8f39-3b942af15d75)"><path d=" M 3.7965545654296875 -0.25 C 1.98355737639533 -0.25 0.5086418649137885 -1.7249155114815409 0.5086418649137885 -3.537912700515899 C 0.5086418649137885 -5.350909889550256 1.9835573763953298 -6.825825401031798 3.7965545654296875 -6.825825401031798 C 5.609551754464046 -6.825825401031798 7.0844672659455865 -5.350909889550257 7.0844672659455865 -3.537912700515899 C 7.0844672659455865 -1.7249155114815409 5.609551754464046 -0.25 3.7965545654296875 -0.25 M 3.7965545654296875 -6.754197068388752 C 2.0230694693667406 -6.754197068388752 0.5802701975568336 -5.311397796578845 0.5802701975568336 -3.537912700515899 C 0.5802701975568336 -1.764427604452952 2.0230694693667406 -0.32162833264304425 3.7965545654296875 -0.32162833264304425 C 5.570039661492634 -0.32162833264304425 7.012838933302542 -1.764427604452952 7.012838933302542 -3.537912700515898 C 7.012838933302542 -5.311397796578845 5.570039661492634 -6.754197068388752 3.7965545654296875 -6.754197068388752" fill="#ffe398" transform="matrix(1,0,0,1,0,0)" fill-rule="nonzero"></path></g><g clip-path="url(#bf970f678-15bf-46e7-bc8d-109aafede36734eae785-1d9b-4adf-8f39-3b942af15d75)"><path d=" M 6.494825263141453 -3.5835035770213723 L 6.8867041749707285 -3.5835035770213723 L 6.884677913792708 -3.6643513980244133 L 6.493001628081235 -3.65249777013299 Z M 6.489658297137499 -3.716426310299555 L 6.880828017554467 -3.7398296269056983 L 6.873634790372493 -3.8340507716836787 L 6.483376887485634 -3.798793827186112 Z M 6.474562651361242 -3.865052567707401 L 6.8636047975412895 -3.91206182703749 L 6.8516498565909645 -4.005877719579866 L 6.4642287193533345 -3.9470148323583536 Z M 6.450044891107187 -4.026950835831284 L 6.835439767166796 -4.09756603788532 C 6.829664922809436 -4.128567833909042 6.825004522099988 -4.159670942991665 6.817304729623507 -4.190267486779783 L 6.434240053918622 -4.108001282952128 C 6.441129341923895 -4.081355948461151 6.4449792381621345 -4.0540014225578656 6.450044891107187 -4.026950835831284 M 6.415902390257532 -4.18712678195385 L 6.79643423948989 -4.281043987555128 C 6.789950203720222 -4.311944470519949 6.780426776183524 -4.342034449013562 6.772017792294736 -4.372428366683879 L 6.39462664788831 -4.26686015930898 C 6.401921188129187 -4.2403161378769045 6.4104314850768755 -4.214076055621531 6.415902390257532 -4.18712678195385 M 6.372337774930079 -4.344972527721692 L 6.746284275333868 -4.46198911075241 L 6.7159916707224525 -4.551549854820942 L 6.345793753498002 -4.423084896134405 Z M 6.318135288418015 -4.4993736294868985 L 6.684280683286423 -4.639084337711452 L 6.649530304083362 -4.727024072837567 L 6.287842683806599 -4.576168928133898 Z M 6.254915939663757 -4.650431400308371 L 6.61184184617217 -4.812228355373353 C 6.598468522397231 -4.8407986379834504 6.586817520623609 -4.870078112005855 6.571924500965155 -4.897939203203644 L 6.220165560460696 -4.725301750836248 C 6.233234945058932 -4.701087929758897 6.243163624831236 -4.675354412798029 6.254915939663757 -4.65043140030837 M 6.18308498090291 -4.797639274891601 L 6.5294743292856126 -4.9808132853847065 C 6.5155944402161685 -5.009180941877001 6.499485663850901 -5.036231528603583 6.483782139721238 -5.063586054506867 L 6.143167635695895 -4.869875485888052 C 6.156844898647537 -4.845965603987404 6.171130039952586 -4.822359661263458 6.18308498090291 -4.797639274891601 M 6.102541099076573 -4.940288061824285 L 6.437178132626753 -5.144129936333205 L 6.386217663999524 -5.223762000629433 L 6.057963353160109 -5.009687507171506 Z M 6.012575102772438 -5.077162004399608 L 6.334244064783282 -5.300962551512036 L 6.279433699917812 -5.377960476276837 L 5.964755338971139 -5.1444338755099075 Z M 5.914909313991821 -5.208666354853176 L 6.22249576081542 -5.451513757039002 C 6.202739714329715 -5.476132830351958 6.184098111491921 -5.501562408136123 6.163024995240502 -5.524965724742266 L 5.863037027834482 -5.272898834196444 C 5.881577317613374 -5.252534909357332 5.897686093978641 -5.230144723340199 5.914909313991821 -5.208666354853176 M 5.809746358852527 -5.334395860949384 L 6.1021358468409685 -5.595378300678499 C 6.081974548119659 -5.619592121755851 6.059381735984724 -5.64167836859628 6.0379033674977 -5.66467643296682 L 5.753618924221343 -5.394879757113313 C 5.772361840118038 -5.3748197714509045 5.792219199662645 -5.355671603318605 5.809746358852527 -5.334395860949384 M 5.697187550413457 -5.453438705158122 L 5.973265635918828 -5.731543051841515 L 5.9048793211606165 -5.796788661773793 L 5.637412845661834 -5.510376644260514 Z M 5.577131575615708 -5.564984383008182 L 5.835885128048999 -5.859197506056843 L 5.764358108464855 -5.921099785045387 L 5.514722731332658 -5.6190855564613456 Z M 5.450794191166094 -5.669336833676268 L 5.6913113929971955 -5.978746915560086 C 5.666591006625338 -5.9981990228690885 5.641971933312382 -6.017955069354794 5.615934477174811 -6.035684854662478 L 5.384940702880408 -5.719182858655587 C 5.407736141133146 -5.703681960643726 5.429214509620169 -5.686458740630546 5.450794191166094 -5.669336833676268 M 5.31868196235912 -5.766293431044576 L 5.540152309116824 -6.08968471505674 C 5.514621418273758 -6.108123691776732 5.487368205429374 -6.124131155083099 5.4610268101151 -6.141455688155179 L 5.249687769247502 -5.811479055314447 C 5.27258452055914 -5.796383409538189 5.296494402459789 -5.782604833527646 5.31868196235912 -5.766293431044576 M 5.180794889194785 -5.854739731465196 L 5.38220525029008 -6.190896460898893 L 5.3002429856391275 -6.238007033287882 L 5.109267869610642 -5.895872833379024 Z M 5.037639536967597 -5.934270482702524 L 5.2181794079292745 -6.28197690085094 L 5.133988255982499 -6.324933637824987 L 4.964086256205431 -5.971756314495913 Z M 4.89002641014876 -6.005189623933261 L 5.049087912623415 -6.363331287148487 C 5.020416316954417 -6.376501984805623 4.991744721285419 -6.389470056344958 4.962161308086311 -6.4005131797651735 L 4.814244242090773 -6.037609802781598 C 4.83997775905164 -6.028086375244899 4.865103397659101 -6.016739312647982 4.89002641014876 -6.005189623933261 M 4.7386647001505855 -6.067497155157409 L 4.8755386427259095 -6.434655680614828 C 4.846259168703505 -6.44640799544735 4.81596656409209 -6.455424857689544 4.7861805247751805 -6.465860102756353 L 4.6607549578556755 -6.094649054942891 C 4.686691100934345 -6.085429566582895 4.71313380930752 -6.077729774106415 4.7386647001505855 -6.067497155157409 M 4.5835544069730725 -6.119876006609253 L 4.69773422435456 -6.494835637602053 L 4.606755097461414 -6.520670467621822 L 4.504226281853547 -6.142468818744188 Z M 4.425404722028528 -6.162427491347696 L 4.516485161980575 -6.543567218933461 L 4.4242902783806155 -6.56474164824378 L 4.345063466319992 -6.180967781126589 Z M 4.239393945886193 -0.47927145229308277 C 4.270800994145519 -0.4826147832368175 4.30160016405144 -0.48930144512428786 4.332703273134063 -0.49446841112824114 L 4.26512746284706 -0.8804711655412554 C 4.237975563061578 -0.87601339094961 4.211026289393898 -0.8699346074155461 4.183671763490613 -0.8671991548252178 Z M 4.265127462847062 -6.19545554854944 L 4.332703273134063 -6.581458302962455 C 4.301600164051441 -6.586625268966408 4.27080099414552 -6.593413243912779 4.239393945886193 -6.596655261797613 L 4.183671763490613 -6.2088288723243785 C 4.211026289393898 -6.20609341973405 4.237975563061578 -6.200014636199987 4.265127462847062 -6.19545554854944 M 4.0529779175082545 -0.4586035882772679 C 4.08438496576758 -0.4609337886319924 4.115893327085809 -0.4629600498100128 4.147097749227333 -0.4675191374605596 L 4.103026568605374 -0.8568652228173104 C 4.075773355760992 -0.8528127004612687 4.0483175167988055 -0.8511916915188511 4.02086167783662 -0.8490641172819293 Z M 4.103026568605374 -6.219061491273385 L 4.147097749227333 -6.6084075766301345 C 4.115893327085809 -6.612966664280682 4.08438496576758 -6.6149929254587025 4.0529779175082545 -6.6174244388723285 L 4.02086167783662 -6.226862596808766 C 4.0483175167988055 -6.224735022571843 4.075773355760992 -6.223215326688328 4.103026568605374 -6.219061491273384 M 3.8658526977180077 -0.44887753462276514 L 3.9601751555548885 -0.4516129872130952 L 3.9397099176568755 -0.8428840206889641 L 3.857139774652517 -0.8406551333931418 Z M 3.9397099176568755 -6.233042693401729 L 3.9601751555548885 -6.6244150399365 L 3.8658526977180077 -6.6271504925268285 L 3.857139774652517 -6.235372893756454 Z M 3.7728473096468402 -0.44776309097485445 L 3.7757853883549704 -0.8395406897452293 L 3.693113932291711 -0.8416682639821511 L 3.6784235387510584 -0.4500932913295781 Z M 3.693113932291711 -6.234258450108542 L 3.7757853883549704 -6.236386024345465 L 3.7728473096468402 -6.62826493617474 L 3.6784235387510584 -6.625833422761115 Z M 3.5855194637387915 -0.4550576312157313 L 3.6118608590530656 -0.8460247255148969 L 3.5295946552254103 -0.8522048221078613 L 3.491298318960812 -0.46225085839770497 Z M 3.5295946552254103 -6.223721891982833 L 3.6118608590530656 -6.229901988575797 L 3.5855194637387915 -6.620970395933865 L 3.491298318960812 -6.613675855692989 Z M 3.3989008092430506 -0.47339529487682164 L 3.4488481472812698 -0.8620321888212628 C 3.421594934436887 -0.8659833981184049 3.3941390954747006 -0.8680096592964253 3.3670885087481195 -0.8732779383592799 L 3.3052875428184767 -0.48636336641615596 C 3.3362893388421995 -0.48038589594099346 3.3676963871015264 -0.4777517564095657 3.3989008092430506 -0.47339529487682164 M 3.3670885087481195 -6.202648775731413 C 3.3941390954747006 -6.208018367853168 3.421594934436887 -6.21004462903119 3.4488481472812698 -6.2138945252694295 L 3.3989008092430506 -6.602632732272773 C 3.3676963871015264 -6.598174957681127 3.3362893388421995 -6.5955408181497 3.3052875428184767 -6.589563347674537 Z M 3.213599224513023 -0.502674768899225 L 3.2870511922162877 -0.88766439272323 C 3.2599162059162614 -0.8921594120234486 3.2329778729847143 -0.897770156398149 3.206304684272147 -0.904482360500805 L 3.1211004017363617 -0.5219242500904242 C 3.151798258583381 -0.51462970984955 3.1824961154304003 -0.5077404218442778 3.213599224513023 -0.502674768899225 M 3.206304684272147 -6.17154566664879 C 3.2330513318220255 -6.177928389359556 3.259899292430805 -6.18410848595252 3.2870511922162877 -6.188363634426365 L 3.213599224513023 -6.573251945191467 C 3.1824961154304 -6.568287605305316 3.151798258583381 -6.561297004241143 3.1211004017363617 -6.554002464000267 Z M 3.1271791852704243 -6.1533093160466 L 3.0303239009610166 -6.533030660807749 C 2.9998286702317993 -6.525026929154565 2.969637378679286 -6.516010066912372 2.939243461008969 -6.507499769964683 L 3.0477497470919976 -6.131020443088368 Z M 2.969941317855989 -6.107617126482224 L 2.8500879691760423 -6.480753122414805 L 2.76042591204861 -6.450460517803391 L 2.891727636384376 -6.0811744181090495 Z M 2.8157428422085853 -6.052502822440051 L 2.673296681393704 -6.417635086719448 C 2.6441185204302005 -6.405882771886927 2.6145351072310925 -6.394839648466712 2.585559572385391 -6.382479455280783 L 2.7391501696793887 -6.0220075917108336 C 2.7644784344046522 -6.032746775954346 2.790211951365519 -6.042270203491044 2.8157428422085853 -6.052502822440051 M 2.665090323622718 -5.988472969214584 L 2.500659229026308 -6.344183119016185 C 2.471757557795165 -6.33160641218829 2.4433362742788067 -6.317953381818957 2.4154549464905237 -6.303252643220159 L 2.5907265383893447 -5.952709459422512 C 2.6150416725255976 -5.965778844020749 2.6398633719563556 -5.977531158853271 2.665090323622718 -5.988472969214584 M 2.5183890143339918 -5.915730192923628 L 2.3325808643094588 -6.260701158481716 C 2.3047197731116698 -6.245909451882162 2.2777704994439896 -6.229598049399093 2.250314660481804 -6.214097151387231 L 2.446659368632046 -5.875002343245404 C 2.4705692505326944 -5.888476980079244 2.49407388019774 -5.902863434443193 2.5183890143339918 -5.915730192923628 M 2.3767533579903186 -5.833463989095971 L 2.170277343949971 -6.166581326762637 L 2.090746592712644 -6.115519545076506 L 2.3072525995841966 -5.788886243179508 Z M 2.2403859807095 -5.742788801379529 L 2.014153920183447 -6.062735441389057 C 1.988623029340381 -6.044296464669065 1.9624842601439099 -6.02656667936138 1.9374599345953494 -6.007418511229082 L 2.173316735717003 -5.694563785342627 C 2.1952003564396305 -5.711280440061301 2.2180971077512686 -5.72657871195536 2.2403859807095006 -5.742788801379529 M 2.109388195550438 -5.644211195068803 L 1.8642105930098878 -5.949974006832184 C 1.839258803606947 -5.93074550419431 1.8149959977192387 -5.910639139983744 1.7914678167189295 -5.889692736786056 L 2.045864907619477 -5.591629717499157 C 2.0664314585763917 -5.609866068101347 2.0874032617689084 -5.627697166467932 2.109388195550438 -5.644211195068803 M 1.9843678808665375 -5.538339048517202 L 1.7211565538415998 -5.828702275327622 L 1.6525676129655864 -5.763760604572047 L 1.9244918630560148 -5.481502422473711 Z M 1.866642106423513 -5.424361857253516 L 1.5864101855031982 -5.698312368521966 L 1.521265888629821 -5.629926053763755 L 1.8096028542622193 -5.364587152501895 Z M 1.7558056199857603 -5.30359669104346 L 1.4595662357590786 -5.56022266923983 C 1.439303623978868 -5.536110161221379 1.4177239424329438 -5.51311209685084 1.3984744612417435 -5.48808777130228 L 1.7024136379449044 -5.240681281465906 C 1.7190289796046774 -5.262564902188534 1.7380758346780754 -5.282523574792041 1.7558056199857603 -5.30359669104346 M 1.652162360729982 -5.176752741299341 L 1.3410299568448454 -5.414939742775719 C 1.3210712842413381 -5.390523295580564 1.3031388728158517 -5.364587152501895 1.2849025222136619 -5.338954948599929 L 1.6031268402218715 -5.11029137466025 C 1.619134303528238 -5.132681560677383 1.6346352015400993 -5.15547699893012 1.652162360729982 -5.1767527412993415 M 1.5561175808917824 -5.043931321080059 L 1.231105287937202 -5.262970154424138 L 1.1800435062510715 -5.18333809012791 L 1.511539834975319 -4.974430562673937 Z M 1.4691909763546787 -4.905031117326715 L 1.131615864096367 -5.103908651949483 L 1.0845052917073768 -5.021946387298531 L 1.4280578744408503 -4.833504097742571 Z M 1.3905720426474608 -4.761470512863921 L 1.0414472416744291 -4.939376244294172 C 1.027466039546085 -4.911109900860778 1.0118638284753219 -4.883654061898593 0.9995036352893927 -4.854678527052891 L 1.3538967153252788 -4.687511979866152 C 1.364635899568791 -4.7128402445914155 1.378414475579334 -4.736750126492065 1.3905720426474608 -4.761470512863921 M 1.3204634058879314 -4.613452133809481 L 0.9611059859658945 -4.769778183693807 C 0.9476313491320533 -4.741309214142612 0.9366895387707395 -4.7116244878846025 0.9250385369971192 -4.6824463269211 L 1.288955044569704 -4.537163400456989 C 1.29918766351871 -4.562694291300054 1.3085084649376069 -4.588630434378723 1.3204634058879314 -4.613452133809481 M 1.2593716313705958 -4.461583858516803 L 0.8910986622652657 -4.595621035442896 L 0.8608060576538505 -4.506060291374364 L 1.2329289229974219 -4.3833701770451885 Z M 1.2086137888611679 -4.305865686985882 L 0.8329449664560606 -4.417208738718141 L 0.8071101364362914 -4.326229611824994 L 1.1860209767262337 -4.226537561866358 Z M 1.167075434711737 -4.147513375923536 L 0.7853278287725661 -4.235655737167452 C 0.778539853826195 -4.2048565672615315 0.7703334960552096 -4.1744626495912165 0.7649639039334538 -4.143359540508593 L 1.1492443363451508 -4.066969494097197 C 1.153904737054599 -4.094121393882681 1.1613005903543767 -4.120665415314757 1.167075434711737 -4.147513375923536 M 1.135060508099003 -3.9870334906242664 L 0.7485511883914832 -4.051671222203138 C 0.7424724048574196 -4.020770739238317 0.7380146302657737 -3.989566317096793 0.7344686732042365 -3.958260581896367 L 1.1227003149130752 -3.905375165150017 C 1.1258410197390067 -3.932729691053302 1.129589602918346 -3.9599829038976853 1.135060508099003 -3.9870334906242664 M 1.1124676959640678 -3.824729970264778 L 0.722716358371714 -3.8658630721786063 C 0.7191704013101778 -3.8345573369781802 0.7175493923677603 -3.8030489756599524 0.714915252836333 -3.7717432404595272 L 1.1056797210176978 -3.742463766437122 C 1.108009921372422 -3.7698182923404073 1.109225678079234 -3.7973754443614935 1.1124676959640678 -3.824729970264778 M 1.100310128895942 -3.6613120062573787 L 0.7088364693022706 -3.6788391654472608 L 0.7064049558886455 -3.5845167076103794 L 1.09818255465902 -3.5786405501941188 Z M 1.09818255465902 -3.497286163896572 L 0.7064049558886455 -3.491511319539212 L 0.7088364693022706 -3.39708754864343 L 1.100310128895942 -3.4147160208922136 Z M 1.1056797210176978 -3.3335642607124694 L 0.714915252836333 -3.304284786690065 C 0.7175493923677615 -3.272877738430738 0.7191704013101778 -3.2413693771125103 0.722716358371714 -3.2100636419120847 L 1.1124676959640678 -3.2511967438259126 C 1.109225678079235 -3.278551269729197 1.108009921372422 -3.3061084217502836 1.1056797210176978 -3.3335642607124694 M 1.1227003149130752 -3.170551548940674 L 0.7344686732042365 -3.1177674452532247 C 0.7380146302657726 -3.086461710052799 0.7424724048574196 -3.0552572879112745 0.7485511883914832 -3.0242554918875526 L 1.135060508099003 -3.0889945365253255 C 1.1297733978633686 -3.115990483802109 1.1256495246875775 -3.1432012863145005 1.1227003149130752 -3.170551548940672 M 1.1492443363451508 -3.0089572199934933 L 0.7649639039334538 -2.932567173582098 C 0.7703334960552096 -2.9015653775583763 0.778539853826195 -2.8710701468291586 0.7853278287725661 -2.8402709769232386 L 1.167075434711737 -2.9284133381671555 C 1.1613005903543767 -2.955261298775935 1.153904737054599 -2.9819066332669113 1.1492443363451508 -3.0089572199934933 M 1.1860209767262337 -2.8493891522243335 L 0.8071101364362914 -2.7496971022656966 L 0.8329449664560606 -2.65871797537255 L 1.2086137888611679 -2.7700610271048083 Z M 1.2329289229974219 -2.692556537045502 L 0.8608060576538505 -2.5698664227163253 L 0.8910986622652657 -2.4803056786477944 L 1.2593716313705958 -2.6144441686327893 Z M 1.288955044569704 -2.5387633136337024 L 0.9250385369971192 -2.3935817002284923 C 0.9366895387707395 -2.364302226206088 0.9476313491320533 -2.3347188130069805 0.9611059859658945 -2.3061485303968823 L 1.3204634058879314 -2.4624745802812082 C 1.3085084649376069 -2.487296279711967 1.29918766351871 -2.5132324227906366 1.288955044569704 -2.5387633136337024 M 1.3538967153252788 -2.3885160472834395 L 0.9995036352893927 -2.221349500096701 C 1.0118638284753219 -2.1922726521920985 1.027466039546085 -2.164816813229913 1.0414472416744291 -2.13665178285542 L 1.3905720426474608 -2.31455751428567 C 1.3784144755793344 -2.339176587598626 1.364635899568791 -2.363086469499275 1.3538967153252788 -2.3885160472834395 M 1.4280578744408503 -2.2424226163481205 L 1.0845052917073768 -2.054081639851061 L 1.131615864096367 -1.9720180621412071 L 1.4691909763546787 -2.170895596763976 Z M 1.5115398349753184 -2.1014961514167547 L 1.1800435062510704 -1.8925886239627818 L 1.231105287937202 -1.8130578727254543 L 1.556117580891782 -2.0319953930106314 Z M 1.6031268402218715 -1.9656353394304409 L 1.2849025222136619 -1.7370730785496633 C 1.3031388728158517 -1.711440874647697 1.3210712842413381 -1.6855047315690266 1.3410299568448454 -1.6610882843738732 L 1.652162360729982 -1.8992752858502504 C 1.6346352015400993 -1.9205510282194718 1.619134303528238 -1.943245153413308 1.6031268402218715 -1.9656353394304409 M 1.702413637944904 -1.8353467456836858 L 1.3984744612417424 -1.5878389427884114 C 1.4177239424329424 -1.5628146172398516 1.4393036239788668 -1.5399178659282127 1.459566235759078 -1.5158053579097626 L 1.7558056199857592 -1.77233002304723 C 1.7380758346780754 -1.7934031392986496 1.7190289796046767 -1.8133618119021575 1.702413637944904 -1.8353467456836858 M 1.809602854262219 -1.711440874647697 L 1.5212658886298203 -1.4461019733858382 L 1.5864101855031976 -1.3777156586276256 L 1.8666421064235124 -1.6516661698960755 Z M 1.9244918630560137 -1.594525604675881 L 1.6525676129655857 -1.3122674225775448 L 1.7211565538415992 -1.2472244387630687 L 1.9843678808665368 -1.537587665573489 Z M 2.0458649076194764 -1.4843983096504365 L 1.7914678167189302 -1.1862339773046342 C 1.8150737594428752 -1.1653634871710166 1.8391862674613257 -1.1451008753908063 1.864210593009886 -1.126054020317408 L 2.1093881955504363 -1.4317155190218864 C 2.087403261768908 -1.4483308606816596 2.06643145857639 -1.4660606459893444 2.0458649076194755 -1.4843983096504347 M 2.1733167357170013 -1.381464241806965 L 1.9374599345953483 -1.0685082028616097 C 1.962484260143908 -1.049360034729311 1.9886230293403806 -1.0317315624805268 2.0141539201834457 -1.013292585760535 L 2.2403859807094983 -1.333239225770063 C 2.218097107751267 -1.349348002135331 2.1952003564396283 -1.3647475870882912 2.173316735717001 -1.381464241806965 M 2.307252599584194 -1.2870404709111822 L 2.0907465927126423 -0.9604071690141849 L 2.170277343949969 -0.9094467003869555 L 2.3767533579903164 -1.242462724994719 Z M 2.446659368632044 -1.2010256839041888 L 2.2503146604818016 -0.86182956270346 C 2.2777704994439874 -0.8463286646915993 2.3047197731116675 -0.8300172622085293 2.332580864309457 -0.8152255556089747 L 2.51838901433399 -1.1601965211670642 C 2.494073880197737 -1.1731645927063985 2.4705692505326926 -1.1874497340114463 2.446659368632044 -1.2010256839041888 M 2.5907265383893425 -1.1232172546681785 L 2.4154549464905193 -0.7727753839294333 C 2.4433160376883087 -0.7579836773298796 2.4717850072395056 -0.7444077274371379 2.500659229026306 -0.7318449081334082 L 2.665090323622716 -1.0874537448761066 C 2.6398311591703916 -1.0983691984112012 2.6150230250356663 -1.1103000858084204 2.5907265383893447 -1.1232172546681776 M 2.739150169679386 -1.0540204354387583 L 2.585559572385389 -0.6934472588099077 C 2.6145351072310907 -0.6811883786828812 2.6441185204301982 -0.6700439422037654 2.673296681393702 -0.6583929404301436 L 2.8157428422085835 -1.0234238916506406 C 2.7902119513655177 -1.0336565105996467 2.76447843440465 -1.0432812511952472 2.739150169679386 -1.0540204354387583 M 2.891727636384373 -0.9947522959816419 L 2.760425912048608 -0.6255675093462019 L 2.85008796917604 -0.5952749047347874 L 2.969941317855987 -0.9683095876084673 Z M 3.047749747091996 -0.9450075840612255 L 2.9392434610089677 -0.5684269441260081 C 2.9696373786792836 -0.5599166471783192 2.999828670231798 -0.5508997849361261 3.0303239009610157 -0.5429973663418437 L 3.1271791852704234 -0.9227187111029931 Z M 4.425404722028526 -0.9136005358018995 L 4.34506346631999 -0.8949589329641041 L 4.424290278380614 -0.511185065846913 L 4.516485161980573 -0.5324608082161335 Z M 4.504226281853546 -0.9335592084054056 L 4.606755097461412 -0.5553575595277724 L 4.697734224354558 -0.5811923895475406 L 4.583554406973071 -0.956050707481439 Z M 4.660754957855674 -0.9813789722067039 L 4.786180524775178 -0.6101679243932416 C 4.815966564092088 -0.6206031694600505 4.846259168703503 -0.6296200317022453 4.875538642725908 -0.6412710334758653 L 4.738664700150584 -1.0085308719921864 C 4.713133809307519 -0.998196939984278 4.686691100934343 -0.9904971475077975 4.660754957855674 -0.981378972206703 M 4.81424424209077 -1.0383169113090958 L 4.9621613080863085 -0.6754135343255205 C 4.991744721285417 -0.6865579708046354 5.020416316954415 -0.6995260423439715 5.049087912623413 -0.7125954269422072 L 4.890026410148758 -1.070737090157433 C 4.865185574291617 -1.058974108770233 4.8399066038280045 -1.0481595759515745 4.814244242090769 -1.0383169113090949 M 4.964086256205429 -1.1041703995947794 L 5.133988255982496 -0.750993076265706 L 5.218179407929272 -0.7939498132397542 L 5.0376395369675935 -1.1417575444470716 Z M 5.109267869610639 -1.1801551937705703 L 5.300242985639126 -0.8379196808028118 L 5.3822052502900775 -0.8851315662507018 L 5.180794889194783 -1.2212882956843982 Z M 5.249687769247499 -1.2644476587762474 L 5.461026810115098 -0.9344710259355162 C 5.487368205429372 -0.9517955590075955 5.514621418273755 -0.9678030223139613 5.540152309116821 -0.9863433120928544 L 5.318681962359117 -1.309633283046118 C 5.296494402459786 -1.2934231936219494 5.272584520559137 -1.2796446176114058 5.249687769247499 -1.2644476587762474 M 5.384940702880406 -1.3567438554351074 L 5.615934477174809 -1.0402418594282157 C 5.64197193331238 -1.0580729577948 5.666591006625335 -1.0777276912216047 5.691311392997193 -1.097281111589508 L 5.450794191166091 -1.4065898804144261 C 5.4292145096201665 -1.3895692865190492 5.407736141133143 -1.3722447534469682 5.384940702880406 -1.3567438554351074 M 5.514722731332657 -1.456942470688249 L 5.764358108464853 -1.1549282421042077 L 5.8358851280489965 -1.2167292080338505 L 5.577131575615705 -1.5110436441414121 Z M 5.637412845661832 -1.565550069830179 L 5.904879321160615 -1.2791380523168998 L 5.973265635918826 -1.3443836622491787 L 5.697187550413454 -1.6224880089325708 Z M 5.753618924221342 -1.6810469569773803 L 6.037903367497697 -1.4113515941827757 C 6.05938173598472 -1.434349658553315 6.081974548119656 -1.456435905393744 6.102135846840966 -1.4806497264710963 L 5.809746358852524 -1.741632166200211 C 5.792219199662643 -1.7203564238309887 5.772361840118036 -1.70120825569869 5.753618924221342 -1.6810469569773812 M 5.863037027834479 -1.8031291929531506 L 6.1630249952405 -1.550960989348428 C 6.1840981114919185 -1.574364305954571 6.202739714329712 -1.599895196797636 6.222495760815418 -1.6244129570516916 L 5.914909313991819 -1.8672603592375179 C 5.897686093978639 -1.845883303809396 5.881577317613372 -1.8234931177922622 5.863037027834479 -1.8031291929531506 M 5.964755338971137 -1.9314928385807857 L 6.27943369991781 -1.6979662378138567 L 6.33424406478328 -1.7749641625786579 L 6.012575102772434 -1.998764709691085 Z M 6.0579633531601065 -2.066239206919187 L 6.3862176639995205 -1.85216471346126 L 6.437178132626751 -1.931796777757488 L 6.1025410990765705 -2.1357399653253104 Z M 6.143167635695893 -2.2061525412615426 L 6.483782139721236 -2.012441972642728 C 6.499485663850899 -2.0397964985460124 6.515594440216166 -2.0668470852725935 6.529474329285611 -2.095214741764889 L 6.183084980902907 -2.2783887522579933 C 6.171130039952584 -2.2535670528272354 6.1568448986475355 -2.2299611101032903 6.143167635695893 -2.2061525412615426 M 6.220165560460694 -2.3507262763133463 L 6.571924500965153 -2.1780888239459504 C 6.586817520623607 -2.2058486020848385 6.598468522397228 -2.235229389166145 6.611841846172167 -2.2637996717762414 L 6.254915939663755 -2.4254953137823243 C 6.243163624831234 -2.4006736143515655 6.233234945058929 -2.374940097390698 6.220165560460694 -2.3507262763133463 M 6.2878426838065975 -2.4997577859567963 L 6.649530304083361 -2.3489026412531278 L 6.684280683286421 -2.4369436894381424 L 6.318135288418013 -2.5765530846037947 Z M 6.3457937534980005 -2.6529431310151903 L 6.715991670722451 -2.5243768592697524 L 6.746284275333866 -2.6140389163971856 L 6.372337774930077 -2.731055499427902 Z M 6.394626647888308 -2.809167867840615 L 6.772017792294734 -2.703498347406816 C 6.780426776183521 -2.733892265077132 6.7899502037202195 -2.7639822435707444 6.796434239489888 -2.7948827265355662 L 6.41590239025753 -2.8887999321368434 C 6.410431485076873 -2.861850658469163 6.401921188129185 -2.8356105762137895 6.394626647888308 -2.809167867840615 M 6.434240053918621 -2.9680267441974673 L 6.817304729623506 -2.8856592273109105 C 6.825004522099985 -2.9162557710990287 6.8296649228094335 -2.9474601932405533 6.835439767166793 -2.978461989264276 L 6.450044891107185 -3.048975878259409 C 6.444979238162132 -3.0219252915328276 6.441129341923893 -2.9946720786884446 6.434240053918621 -2.9680267441974673 M 6.464228719353332 -3.129013194791242 L 6.851649856590962 -3.0701503075697296 L 6.863604797541287 -3.1639662001121054 L 6.474562651361239 -3.2108741463832935 Z M 6.4833768874856315 -3.2917219673863336 L 6.873634790372491 -3.2564650228887673 L 6.880828017554465 -3.3506861676667477 L 6.489658297137497 -3.3740894842728912 Z M 6.4929003150223314 -3.4350799457313252 L 6.884576600733805 -3.423226317839902 L 6.886805488029627 -3.513800192497444 L 6.4949265762003545 -3.513800192497444 Z" fill="#ffe398" transform="matrix(1,0,0,1,0,0)" fill-rule="nonzero"></path></g></g></g><defs><clipPath id="SvgjsClipPath1020"><path d=" M 0.5086418649137885 -6.825825401031798 h 6.575825401031798 v 6.575825401031798 h -6.575825401031798 Z"></path></clipPath><clipPath id="af970f678-15bf-46e7-bc8d-109aafede36734eae785-1d9b-4adf-8f39-3b942af15d75"><path d=" M 0.5086418649137885 -0.25 L 7.0844672659455865 -0.25 L 7.0844672659455865 -6.825825401031798 L 0.5086418649137885 -6.825825401031798 Z"></path></clipPath><clipPath id="SvgjsClipPath101834eae785-1d9b-4adf-8f39-3b942af15d75"><path d=" M 0.5086418649137885 -6.825825401031798 L 7.0844672659455865 -6.825825401031798 L 7.0844672659455865 -0.25 L 0.5086418649137885 -0.25 Z"></path></clipPath><clipPath id="bf970f678-15bf-46e7-bc8d-109aafede36734eae785-1d9b-4adf-8f39-3b942af15d75"><path d=" M 0.5086418649137885 -0.25 L 7.0844672659455865 -0.25 L 7.0844672659455865 -6.825825401031798 L 0.5086418649137885 -6.825825401031798 Z"></path></clipPath></defs></svg>